<svg width="1200" height="800" viewBox="0 0 1200 800" fill="none" xmlns="http://www.w3.org/2000/svg">
  <defs>
    <linearGradient id="bg" x1="120" y1="40" x2="1080" y2="760" gradientUnits="userSpaceOnUse">
      <stop stop-color="#0B0B0D"/>
      <stop offset="0.52" stop-color="#111316"/>
      <stop offset="1" stop-color="#050506"/>
    </linearGradient>
    <linearGradient id="gold" x1="300" y1="180" x2="900" y2="620" gradientUnits="userSpaceOnUse">
      <stop stop-color="#E7C97A"/>
      <stop offset="1" stop-color="#B8892C"/>
    </linearGradient>
    <linearGradient id="glass" x1="380" y1="210" x2="820" y2="600" gradientUnits="userSpaceOnUse">
      <stop stop-color="#2A2E34" stop-opacity="0.92"/>
      <stop offset="1" stop-color="#0E1013" stop-opacity="0.98"/>
    </linearGradient>
    <radialGradient id="glow" cx="0" cy="0" r="1" gradientUnits="userSpaceOnUse" gradientTransform="translate(600 270) rotate(90) scale(380 520)">
      <stop stop-color="#C9A84C" stop-opacity="0.30"/>
      <stop offset="1" stop-color="#C9A84C" stop-opacity="0"/>
    </radialGradient>
    <filter id="blur" x="0" y="0" width="1200" height="800" filterUnits="userSpaceOnUse" color-interpolation-filters="sRGB">
      <feGaussianBlur stdDeviation="28"/>
    </filter>
  </defs>
  <rect width="1200" height="800" fill="url(#bg)"/>
  <circle cx="600" cy="250" r="260" fill="url(#glow)" filter="url(#blur)"/>
  <g opacity="0.22">
    <path d="M120 610C240 560 320 540 440 560C540 578 640 628 760 638C882 648 990 600 1080 540V800H120V610Z" fill="#D6B15E"/>
    <path d="M160 602C270 560 340 554 450 570C560 586 650 630 760 638C868 646 972 614 1040 574" stroke="#F1D38B" stroke-width="2" stroke-linecap="round"/>
  </g>
  <g transform="translate(280 160)">
    <path d="M40 220C40 187 66 160 99 160H541C574 160 600 187 600 220V506C600 539 574 566 541 566H99C66 566 40 539 40 506V220Z" fill="url(#glass)" stroke="url(#gold)" stroke-opacity="0.6" stroke-width="2"/>
    <rect x="70" y="190" width="500" height="76" rx="18" fill="#0C0D10" stroke="#D7B65C" stroke-opacity="0.6"/>
    <text x="320" y="242" text-anchor="middle" fill="#F3E7C2" font-size="34" font-family="Georgia, 'Times New Roman', serif" letter-spacing="7">FLAGSHIP</text>
    <rect x="96" y="292" width="190" height="180" rx="14" fill="#16181D" stroke="#F0D89B" stroke-opacity="0.28"/>
    <rect x="314" y="292" width="190" height="180" rx="14" fill="#15171B" stroke="#F0D89B" stroke-opacity="0.28"/>
    <rect x="532" y="292" width="0" height="0" rx="14" fill="#15171B"/>
    <rect x="315" y="292" width="190" height="180" rx="14" fill="#15171B" stroke="#F0D89B" stroke-opacity="0.28"/>
    <path d="M92 474H504" stroke="#C9A84C" stroke-opacity="0.55" stroke-width="2"/>
    <g fill="url(#gold)">
      <rect x="132" y="324" width="56" height="118" rx="8"/>
      <rect x="206" y="338" width="30" height="104" rx="8"/>
      <rect x="356" y="330" width="52" height="112" rx="8"/>
      <rect x="430" y="318" width="30" height="124" rx="8"/>
    </g>
    <g stroke="#EBD59B" stroke-opacity="0.8" stroke-width="2">
      <line x1="104" y1="292" x2="104" y2="472"/>
      <line x1="286" y1="292" x2="286" y2="472"/>
      <line x1="314" y1="292" x2="314" y2="472"/>
      <line x1="496" y1="292" x2="496" y2="472"/>
    </g>
    <g opacity="0.95">
      <circle cx="210" cy="530" r="34" fill="#B7892A"/>
      <circle cx="212" cy="520" r="9" fill="#111"/>
      <circle cx="384" cy="530" r="34" fill="#B7892A"/>
      <circle cx="386" cy="520" r="9" fill="#111"/>
    </g>
    <path d="M0 570C110 520 190 494 300 500C410 506 486 540 620 576" stroke="url(#gold)" stroke-opacity="0.75" stroke-width="5" stroke-linecap="round"/>
  </g>
  <g opacity="0.85">
    <circle cx="214" cy="166" r="4" fill="#E8C97A"/>
    <circle cx="248" cy="120" r="3" fill="#E8C97A"/>
    <circle cx="964" cy="192" r="4" fill="#E8C97A"/>
    <circle cx="904" cy="128" r="3" fill="#E8C97A"/>
    <circle cx="882" cy="610" r="3" fill="#E8C97A"/>
    <circle cx="322" cy="648" r="4" fill="#E8C97A"/>
  </g>
  <g opacity="0.18">
    <path d="M101 110L146 70" stroke="#E8C97A" stroke-width="2"/>
    <path d="M101 70L146 110" stroke="#E8C97A" stroke-width="2"/>
    <path d="M1035 640L1080 600" stroke="#E8C97A" stroke-width="2"/>
    <path d="M1035 600L1080 640" stroke="#E8C97A" stroke-width="2"/>
  </g>
</svg>
